<mxfile host="app.diagrams.net" modified="2023-12-05T15:54:00.692Z" agent="Mozilla/5.0 (Windows NT 10.0; Win64; x64; rv:120.0) Gecko/20100101 Firefox/120.0" etag="mWr54Zc8CTT4rv-fsurM" version="22.1.5" type="device">
  <diagram name="Strona-1" id="9HlEu6vSL3IRb-J0xnfi">
    <mxGraphModel dx="1050" dy="530" grid="1" gridSize="10" guides="1" tooltips="1" connect="1" arrows="1" fold="1" page="1" pageScale="1" pageWidth="827" pageHeight="1169" math="0" shadow="0">
      <root>
        <mxCell id="0" />
        <mxCell id="1" parent="0" />
        <mxCell id="43uoRQsqSuRM0d6arGg_-1" value="Processor" style="swimlane;fontStyle=1;align=center;verticalAlign=top;childLayout=stackLayout;horizontal=1;startSize=26;horizontalStack=0;resizeParent=1;resizeParentMax=0;resizeLast=0;collapsible=1;marginBottom=0;whiteSpace=wrap;html=1;" vertex="1" parent="1">
          <mxGeometry x="520" y="170" width="160" height="130" as="geometry" />
        </mxCell>
        <mxCell id="43uoRQsqSuRM0d6arGg_-2" value="&lt;div&gt;- model: String&lt;br&gt;&lt;/div&gt;&lt;div&gt;- cores: int&lt;/div&gt;&lt;div&gt;- frequency: float&lt;br&gt;&lt;/div&gt;" style="text;strokeColor=none;fillColor=none;align=left;verticalAlign=top;spacingLeft=4;spacingRight=4;overflow=hidden;rotatable=0;points=[[0,0.5],[1,0.5]];portConstraint=eastwest;whiteSpace=wrap;html=1;" vertex="1" parent="43uoRQsqSuRM0d6arGg_-1">
          <mxGeometry y="26" width="160" height="54" as="geometry" />
        </mxCell>
        <mxCell id="43uoRQsqSuRM0d6arGg_-3" value="" style="line;strokeWidth=1;fillColor=none;align=left;verticalAlign=middle;spacingTop=-1;spacingLeft=3;spacingRight=3;rotatable=0;labelPosition=right;points=[];portConstraint=eastwest;strokeColor=inherit;" vertex="1" parent="43uoRQsqSuRM0d6arGg_-1">
          <mxGeometry y="80" width="160" height="8" as="geometry" />
        </mxCell>
        <mxCell id="43uoRQsqSuRM0d6arGg_-4" value="&lt;div&gt;+ Processor(String, int, float)&lt;br&gt;&lt;/div&gt;&lt;div&gt;+ toString(): String&lt;/div&gt;" style="text;strokeColor=none;fillColor=none;align=left;verticalAlign=top;spacingLeft=4;spacingRight=4;overflow=hidden;rotatable=0;points=[[0,0.5],[1,0.5]];portConstraint=eastwest;whiteSpace=wrap;html=1;" vertex="1" parent="43uoRQsqSuRM0d6arGg_-1">
          <mxGeometry y="88" width="160" height="42" as="geometry" />
        </mxCell>
        <mxCell id="43uoRQsqSuRM0d6arGg_-5" value="Computer" style="swimlane;fontStyle=1;align=center;verticalAlign=top;childLayout=stackLayout;horizontal=1;startSize=26;horizontalStack=0;resizeParent=1;resizeParentMax=0;resizeLast=0;collapsible=1;marginBottom=0;whiteSpace=wrap;html=1;" vertex="1" parent="1">
          <mxGeometry x="130" y="140" width="160" height="190" as="geometry" />
        </mxCell>
        <mxCell id="43uoRQsqSuRM0d6arGg_-6" value="&lt;div&gt;- motherboard: String&lt;br&gt;&lt;/div&gt;&lt;div&gt;- RAM: String&lt;br&gt;&lt;/div&gt;&lt;div&gt;- GPU: String&lt;br&gt;&lt;/div&gt;&lt;div&gt;- hardDisks: String[]&lt;br&gt;&lt;/div&gt;&lt;div&gt;- monitor: String&lt;br&gt;&lt;/div&gt;&lt;div&gt;- keyboard: String&lt;br&gt;&lt;/div&gt;&lt;div&gt;- mouse: String&lt;br&gt;&lt;/div&gt;" style="text;strokeColor=none;fillColor=none;align=left;verticalAlign=top;spacingLeft=4;spacingRight=4;overflow=hidden;rotatable=0;points=[[0,0.5],[1,0.5]];portConstraint=eastwest;whiteSpace=wrap;html=1;" vertex="1" parent="43uoRQsqSuRM0d6arGg_-5">
          <mxGeometry y="26" width="160" height="114" as="geometry" />
        </mxCell>
        <mxCell id="43uoRQsqSuRM0d6arGg_-7" value="" style="line;strokeWidth=1;fillColor=none;align=left;verticalAlign=middle;spacingTop=-1;spacingLeft=3;spacingRight=3;rotatable=0;labelPosition=right;points=[];portConstraint=eastwest;strokeColor=inherit;" vertex="1" parent="43uoRQsqSuRM0d6arGg_-5">
          <mxGeometry y="140" width="160" height="8" as="geometry" />
        </mxCell>
        <mxCell id="43uoRQsqSuRM0d6arGg_-8" value="&lt;div&gt;+ setters...&lt;br&gt;&lt;/div&gt;&lt;div&gt;+ displaySpecs()&lt;br&gt;&lt;/div&gt;" style="text;strokeColor=none;fillColor=none;align=left;verticalAlign=top;spacingLeft=4;spacingRight=4;overflow=hidden;rotatable=0;points=[[0,0.5],[1,0.5]];portConstraint=eastwest;whiteSpace=wrap;html=1;" vertex="1" parent="43uoRQsqSuRM0d6arGg_-5">
          <mxGeometry y="148" width="160" height="42" as="geometry" />
        </mxCell>
        <mxCell id="43uoRQsqSuRM0d6arGg_-17" value="1..n" style="endArrow=open;html=1;endSize=12;startArrow=diamondThin;startSize=14;startFill=0;edgeStyle=orthogonalEdgeStyle;align=left;verticalAlign=bottom;rounded=0;" edge="1" parent="1" source="43uoRQsqSuRM0d6arGg_-6" target="43uoRQsqSuRM0d6arGg_-2">
          <mxGeometry x="0.375" relative="1" as="geometry">
            <mxPoint x="330" y="110" as="sourcePoint" />
            <mxPoint x="490" y="110" as="targetPoint" />
            <mxPoint as="offset" />
          </mxGeometry>
        </mxCell>
        <mxCell id="43uoRQsqSuRM0d6arGg_-18" value="- cpu" style="edgeLabel;html=1;align=center;verticalAlign=middle;resizable=0;points=[];" vertex="1" connectable="0" parent="43uoRQsqSuRM0d6arGg_-17">
          <mxGeometry x="0.0957" y="3" relative="1" as="geometry">
            <mxPoint x="44" y="20" as="offset" />
          </mxGeometry>
        </mxCell>
      </root>
    </mxGraphModel>
  </diagram>
</mxfile>
